<?xml version="1.0" standalone="no"?>
<!DOCTYPE svg PUBLIC "-//W3C//DTD SVG 20010904//EN"
 "http://www.w3.org/TR/2001/REC-SVG-20010904/DTD/svg10.dtd">
<svg version="1.0" xmlns="http://www.w3.org/2000/svg"
 width="64.000000pt" height="64.000000pt" viewBox="0 0 64.000000 64.000000"
 preserveAspectRatio="xMidYMid meet">

<g transform="translate(0.000000,64.000000) scale(0.100000,-0.100000)"
fill="#000000" stroke="none">
<path d="M100 560 c-19 -19 -20 -33 -20 -240 0 -207 1 -221 20 -240 19 -19 33
-20 220 -20 187 0 201 1 220 20 19 19 20 33 20 206 l0 186 -55 54 -56 54 -164
0 c-152 0 -167 -2 -185 -20z m80 -28 c0 -47 14 -52 140 -52 120 0 140 6 140
42 0 26 8 23 46 -19 l34 -38 -3 -170 -2 -170 -215 0 -215 0 -3 205 c-1 112 0
210 2 217 3 7 21 13 41 13 32 0 35 -3 35 -28z m40 -2 c0 -16 -4 -30 -10 -30
-5 0 -10 14 -10 30 0 17 5 30 10 30 6 0 10 -13 10 -30z m180 0 l0 -30 -80 0
-80 0 0 30 0 30 80 0 80 0 0 -30z m40 0 c0 -16 -4 -30 -10 -30 -5 0 -10 14
-10 30 0 17 5 30 10 30 6 0 10 -13 10 -30z m97 -435 c-5 -14 -429 -14 -434 0
-2 6 75 10 217 10 142 0 219 -4 217 -10z"/>
<path d="M190 440 c0 -6 50 -10 130 -10 80 0 130 4 130 10 0 6 -50 10 -130 10
-80 0 -130 -4 -130 -10z"/>
<path d="M192 388 c-16 -16 -16 -200 0 -216 17 -17 239 -17 256 0 16 16 16
200 0 216 -17 17 -239 17 -256 0z m248 -88 l0 -80 -120 0 -120 0 0 80 0 80
120 0 120 0 0 -80z m0 -110 c0 -6 -47 -10 -120 -10 -73 0 -120 4 -120 10 0 6
47 10 120 10 73 0 120 -4 120 -10z"/>
</g>
</svg>
